HIERARCHY
ROOT root
{
	OFFSET 0.000000 0.000000 0.000000
	CHANNELS 6 Xposition Yposition Zposition Zrotation Yrotation Xrotation
	JOINT lhip
	{
		OFFSET 0.058581 -0.082280 -0.017664
		CHANNELS 3 Zrotation Yrotation Xrotation
		JOINT lknee
		{
			OFFSET 0.043451 -0.386469 0.008037
			CHANNELS 3 Zrotation Yrotation Xrotation
			JOINT lankle
			{
				OFFSET -0.014790 -0.426874 -0.037428
				CHANNELS 3 Zrotation Yrotation Xrotation
				JOINT ltoe
				{
					OFFSET 0.041054 -0.060286 0.122042
					CHANNELS 3 Zrotation Yrotation Xrotation
					End Site
					{
						OFFSET 0.000000 0.000000 0.000000
					}
				}
			}
		}
	}
	JOINT rhip
	{
		OFFSET -0.060310 -0.090513 -0.013543
		CHANNELS 3 Zrotation Yrotation Xrotation
		JOINT rknee
		{
			OFFSET -0.043257 -0.383688 -0.004843
			CHANNELS 3 Zrotation Yrotation Xrotation
			JOINT rankle
			{
				OFFSET 0.019056 -0.420046 -0.034562
				CHANNELS 3 Zrotation Yrotation Xrotation
				JOINT rtoe
				{
					OFFSET -0.034840 -0.062106 0.130323
					CHANNELS 3 Zrotation Yrotation Xrotation
					End Site
					{
						OFFSET 0.000000 0.000000 0.000000
					}
				}
			}
		}
	}
	JOINT lowerback
	{
		OFFSET 0.004439 0.124404 -0.038385
		CHANNELS 3 Zrotation Yrotation Xrotation
		JOINT upperback
		{
			OFFSET 0.004488 0.137956 0.026820
			CHANNELS 3 Zrotation Yrotation Xrotation
			JOINT chest
			{
				OFFSET -0.002265 0.056032 0.002855
				CHANNELS 3 Zrotation Yrotation Xrotation
				JOINT lowerneck
				{
					OFFSET -0.013390 0.211636 -0.033468
					CHANNELS 3 Zrotation Yrotation Xrotation
					JOINT upperneck
					{
						OFFSET 0.010113 0.088937 0.050410
						CHANNELS 3 Zrotation Yrotation Xrotation
						End Site
						{
							OFFSET 0.000000 0.000000 0.000000
						}
					}
				}
				JOINT lclavicle
				{
					OFFSET 0.071702 0.114000 -0.018898
					CHANNELS 3 Zrotation Yrotation Xrotation
					JOINT lshoulder
					{
						OFFSET 0.122921 0.045205 -0.019046
						CHANNELS 3 Zrotation Yrotation Xrotation
						JOINT lelbow
						{
							OFFSET 0.255332 -0.015649 -0.022946
							CHANNELS 3 Zrotation Yrotation Xrotation
							JOINT lwrist
							{
								OFFSET 0.265709 0.012698 -0.007375
								CHANNELS 3 Zrotation Yrotation Xrotation
								End Site
								{
									OFFSET 0.000000 0.000000 0.000000
								}
							}
						}
					}
				}
				JOINT rclavicle
				{
					OFFSET -0.082954 0.112472 -0.023707
					CHANNELS 3 Zrotation Yrotation Xrotation
					JOINT rshoulder
					{
						OFFSET -0.113228 0.046853 -0.008472
						CHANNELS 3 Zrotation Yrotation Xrotation
						JOINT relbow
						{
							OFFSET -0.260127 -0.014369 -0.031269
							CHANNELS 3 Zrotation Yrotation Xrotation
							JOINT rwrist
							{
								OFFSET -0.269108 0.006794 -0.006027
								CHANNELS 3 Zrotation Yrotation Xrotation
								End Site
								{
									OFFSET 0.000000 0.000000 0.000000
								}
							}
						}
					}
				}
			}
		}
	}
}
MOTION
Frames: 13
Frame Time: 0.033333
0.556582 0.233456 0.991207 89.497660 3.428119 96.026138 6.085243 4.134946 -1.826233 3.437475 -2.956347 -8.871227 -1.308551 11.345778 -2.985107 0.000000 -0.000000 0.000000 -1.266139 -2.928390 -5.339096 -1.618041 2.155813 -1.143130 4.736360 -7.644991 -3.137253 0.000000 -0.000000 0.000000 0.500917 1.518131 -1.363558 2.283017 -1.575673 -0.576378 -0.457183 1.993331 -5.464081 1.248341 -6.714940 2.791006 3.872626 -6.233189 -3.526574 -22.368827 9.113165 -6.295514 -61.717309 -4.147118 20.206960 10.675322 -11.856373 5.196498 -6.551340 -8.899968 8.424010 24.838149 -4.233587 -3.348424 55.297750 5.005314 16.087010 -3.750897 5.496477 6.434946 4.441306 0.799949 9.805529 
0.556604 0.233342 0.991086 89.467210 3.445419 95.977912 6.103503 4.151719 -1.749293 3.447450 -2.952940 -8.911236 -1.312017 11.359551 -2.973373 0.000000 -0.000000 0.000000 -1.240833 -2.936164 -5.292581 -1.628919 2.174771 -1.152274 4.827533 -7.629102 -3.140547 0.000000 -0.000000 0.000000 0.531135 1.518786 -1.286576 2.299788 -1.584337 -0.787223 -0.415201 1.998428 -5.326344 1.147196 -6.620731 2.918432 3.785026 -6.237145 -3.482985 -22.327561 9.039822 -6.234725 -61.796096 -4.075443 20.201273 10.729606 -11.835235 5.254818 -6.526748 -8.873607 8.264158 24.688729 -4.034248 -3.188323 55.410395 5.005518 16.077390 -3.865202 5.428282 6.250184 4.453155 0.855864 9.528199 
0.556980 0.233000 0.991014 89.546346 3.456149 96.022830 6.139293 4.114471 -1.773302 3.422352 -2.988940 -8.959471 -1.412128 11.360250 -2.953534 0.000000 -0.000000 0.000000 -1.206356 -2.937924 -5.364642 -1.631005 2.048542 -1.021737 4.914557 -7.542240 -3.246747 0.000000 -0.000000 0.000000 0.463811 1.441594 -1.457433 2.396782 -1.626282 -0.857349 -0.273696 1.940089 -5.239140 0.916583 -6.309996 3.168670 3.664142 -6.377913 -3.492734 -22.271908 8.836277 -6.041217 -61.940526 -3.914148 20.114695 10.864348 -11.895430 5.095622 -6.554681 -8.790792 8.031886 24.311963 -3.233157 -2.565335 55.655567 5.008529 16.292205 -3.947622 4.936070 6.115097 4.536383 1.005811 9.257123 
0.557905 0.232131 0.990813 89.868002 3.466148 96.363016 6.153597 4.093816 -2.193971 3.414887 -3.123734 -8.921126 -1.520278 11.250915 -2.976014 0.000000 -0.000000 0.000000 -1.064827 -2.884498 -5.815886 -1.652317 1.638379 -0.596479 4.747217 -7.296052 -3.651244 0.000000 -0.000000 0.000000 0.369776 1.219971 -2.057007 2.597924 -1.750498 -0.644316 -0.222642 1.770928 -5.486980 0.597524 -6.148792 3.611025 3.557952 -6.323183 -3.511988 -22.012532 8.732023 -5.908780 -62.249207 -3.564204 20.697701 11.023886 -12.048704 4.584704 -6.155885 -8.008108 7.075086 23.688384 -2.848346 -2.320959 55.791906 5.612132 15.691132 -4.066740 4.301052 2.888100 5.129328 0.497089 5.184639 
0.557987 0.232011 0.990598 89.862015 3.464189 96.383883 6.134153 4.091059 -2.204796 3.428334 -3.106547 -8.945880 -1.512049 11.244138 -2.964954 0.000000 -0.000000 0.000000 -1.050611 -2.892951 -5.837212 -1.671483 1.614305 -0.603433 4.730824 -7.264467 -3.662784 0.000000 -0.000000 0.000000 0.379971 1.249426 -2.029968 2.614699 -1.766579 -0.669650 -0.225282 1.728015 -5.545481 0.510356 -6.140502 3.642485 3.595053 -6.280932 -3.538348 -21.929125 8.671476 -5.851464 -62.340580 -3.517837 20.749847 11.089446 -12.024075 4.485207 -6.110457 -7.956989 6.964342 23.508856 -2.684268 -2.198772 55.917278 5.635277 15.683154 -4.098821 4.253421 2.691228 5.152898 0.495250 4.848048 
0.558309 0.231798 0.990210 89.830651 3.494941 96.374089 6.123301 4.054886 -2.103373 3.487392 -3.110673 -9.103031 -1.524017 11.294592 -2.897662 0.000000 -0.000000 0.000000 -0.998669 -2.826213 -5.770674 -1.705411 1.532836 -0.708976 4.729501 -7.267713 -3.662217 0.000000 -0.000000 0.000000 0.377669 1.273096 -2.107722 2.655571 -1.793739 -0.550426 -0.106796 1.726289 -5.826254 0.126942 -6.171306 4.156228 3.754856 -6.377906 -3.547414 -21.815216 8.120667 -5.357446 -62.565299 -3.434868 20.697858 11.402737 -11.757421 3.829123 -6.165719 -8.076735 6.866126 22.989399 -0.987102 -1.185033 56.431193 5.131923 16.348473 -4.436419 3.704703 2.105571 4.909226 1.050917 4.173094 
0.558514 0.231532 0.989963 89.834266 3.527210 96.391258 6.123632 4.060694 -2.104318 3.540658 -3.154438 -9.141238 -1.568010 11.303359 -2.900130 0.000000 -0.000000 0.000000 -0.938431 -2.819432 -5.747008 -1.719108 1.555123 -0.794144 4.710164 -7.304872 -3.668038 0.000000 -0.000000 0.000000 0.415444 1.277651 -1.976844 2.647668 -1.811551 -0.723861 -0.087592 1.706921 -5.782131 0.075463 -6.205301 3.971540 3.801864 -6.372092 -3.522156 -21.796332 8.070764 -5.380441 -62.579616 -3.400523 20.734068 11.450620 -11.734503 3.785011 -6.123679 -8.025124 6.786920 22.944765 -0.771556 -1.164797 56.379549 5.073179 16.364451 -4.466648 3.705232 1.749695 4.937312 1.099063 3.789073 
0.558690 0.231387 0.989772 89.841988 3.534067 96.396996 6.106398 4.054573 -2.105627 3.567531 -3.160203 -9.151851 -1.564028 11.294368 -2.922276 0.000000 -0.000000 0.000000 -0.923068 -2.828969 -5.735603 -1.728494 1.553914 -0.824864 4.713076 -7.300199 -3.667035 0.000000 -0.000000 0.000000 0.432808 1.278774 -1.906091 2.633335 -1.828470 -0.783220 -0.079938 1.708818 -5.747210 0.051867 -6.160140 3.807274 3.856128 -6.400696 -3.487104 -21.752707 7.974970 -5.343883 -62.605015 -3.411666 20.728067 11.464253 -11.724058 3.768159 -6.081795 -7.983364 6.705518 22.932745 -0.662664 -1.121766 56.330349 5.130219 16.255790 -4.508886 3.717790 1.472100 4.921304 1.097949 3.478310 
0.558903 0.231343 0.989726 89.840839 3.543591 96.371739 6.120183 4.067838 -2.050315 3.561329 -3.170301 -9.185804 -1.576687 11.283045 -2.916405 0.000000 -0.000000 0.000000 -0.913689 -2.825365 -5.679363 -1.731782 1.548081 -0.860904 4.705476 -7.287895 -3.660103 0.000000 -0.000000 0.000000 0.491062 1.287533 -1.846446 2.584917 -1.822837 -0.804456 -0.115643 1.771115 -5.693898 0.030036 -6.134394 3.776891 3.979898 -6.470543 -3.631824 -21.716691 7.751040 -5.212931 -62.583561 -3.444601 20.636836 11.479885 -11.715620 3.769560 -6.080263 -8.003867 6.624535 22.948893 -0.585420 -1.035630 56.319858 5.156936 16.055429 -4.572719 3.770617 1.277647 4.891062 1.150645 3.232968 
0.558994 0.231362 0.989739 89.846603 3.526804 96.393234 6.104772 4.066122 -2.066959 3.550276 -3.180842 -9.181690 -1.561302 11.264219 -2.904124 0.000000 -0.000000 0.000000 -0.929803 -2.830625 -5.702078 -1.731793 1.546718 -0.846103 4.696892 -7.281311 -3.678264 0.000000 -0.000000 0.000000 0.513286 1.292191 -1.846548 2.558074 -1.837029 -0.765277 -0.163236 1.783343 -5.698488 0.012872 -6.128582 3.753894 4.030019 -6.523346 -3.710881 -21.710413 7.648304 -5.140572 -62.546981 -3.439846 20.626298 11.502727 -11.737146 3.764375 -6.055931 -7.986673 6.586052 22.983016 -0.569216 -1.004726 56.306517 5.224577 15.928294 -4.646652 3.821550 1.064060 4.920284 1.158456 2.991323 
0.559177 0.231378 0.989704 89.825875 3.528097 96.413899 6.102785 4.092918 -2.060671 3.548299 -3.173199 -9.210295 -1.570108 11.262593 -2.904278 0.000000 -0.000000 0.000000 -0.932111 -2.831311 -5.707171 -1.729864 1.555455 -0.862054 4.701320 -7.267940 -3.669864 0.000000 -0.000000 0.000000 0.536852 1.286833 -1.862889 2.535686 -1.839326 -0.763718 -0.188421 1.797426 -5.694601 0.019728 -6.196524 3.773948 4.016900 -6.549967 -3.740732 -21.728335 7.600603 -5.106315 -62.571058 -3.426221 20.679544 11.604862 -11.699086 3.816199 -5.898082 -7.877705 6.651389 22.959671 -0.579768 -1.006582 56.350495 5.235584 15.889935 -4.693909 3.866516 0.921393 4.886172 1.175652 2.783178 
0.559391 0.231380 0.989668 89.789070 3.536322 96.426059 6.099576 4.125938 -2.033817 3.558934 -3.134982 -9.253816 -1.566419 11.263656 -2.902738 0.000000 -0.000000 0.000000 -0.924541 -2.831410 -5.705848 -1.743227 1.550478 -0.881811 4.711574 -7.251786 -3.659085 0.000000 -0.000000 0.000000 0.546251 1.284139 -1.886179 2.530185 -1.838379 -0.742078 -0.207398 1.831361 -5.688840 0.035654 -6.209560 3.798137 4.051251 -6.590490 -3.810865 -21.707729 7.574233 -5.122790 -62.623441 -3.406049 20.745316 11.662958 -11.631809 3.812462 -5.709603 -7.814725 6.685144 22.931689 -0.600543 -1.038652 56.384805 5.226450 15.862257 -4.711980 3.905659 0.779405 4.854014 1.228144 2.601940 
0.559546 0.231374 0.989644 89.746010 3.539321 96.442635 6.094108 4.129610 -2.015692 3.580136 -3.143061 -9.289305 -1.569808 11.260802 -2.892242 0.000000 -0.000000 0.000000 -0.919346 -2.813385 -5.721900 -1.750168 1.536480 -0.883341 4.729855 -7.214628 -3.652628 0.000000 -0.000000 0.000000 0.524421 1.274315 -1.878609 2.542987 -1.830200 -0.764004 -0.204938 1.880204 -5.688625 -0.006847 -6.198843 3.941033 4.119177 -6.613432 -3.864415 -21.656689 7.555158 -5.127417 -62.641549 -3.385894 20.765986 11.617115 -11.632794 3.726965 -5.704095 -7.817625 6.617207 22.890288 -0.601950 -1.091555 56.414493 5.158076 15.843213 -4.746106 3.948351 0.641205 4.896365 1.299911 2.414055 
